<mxfile host="app.diagrams.net" modified="2020-09-13T11:04:37.830Z" agent="5.0 (X11)" etag="An1oUoBBs4JJ37CU55qa" version="13.6.10" type="github">
  <diagram id="XO7ahy35oFJHmfFpwdeW" name="Page-1">
    <mxGraphModel dx="1024" dy="457" grid="1" gridSize="10" guides="1" tooltips="1" connect="1" arrows="1" fold="1" page="1" pageScale="1" pageWidth="850" pageHeight="1100" math="0" shadow="0">
      <root>
        <mxCell id="0" />
        <mxCell id="1" parent="0" />
        <mxCell id="USHChUwwJ4gJDzVkKCaV-16" style="edgeStyle=orthogonalEdgeStyle;rounded=0;orthogonalLoop=1;jettySize=auto;html=1;" edge="1" parent="1" source="USHChUwwJ4gJDzVkKCaV-1" target="USHChUwwJ4gJDzVkKCaV-2">
          <mxGeometry relative="1" as="geometry" />
        </mxCell>
        <mxCell id="USHChUwwJ4gJDzVkKCaV-17" style="edgeStyle=orthogonalEdgeStyle;rounded=0;orthogonalLoop=1;jettySize=auto;html=1;" edge="1" parent="1" source="USHChUwwJ4gJDzVkKCaV-1" target="USHChUwwJ4gJDzVkKCaV-4">
          <mxGeometry relative="1" as="geometry">
            <Array as="points">
              <mxPoint x="425" y="70" />
              <mxPoint x="740" y="70" />
            </Array>
          </mxGeometry>
        </mxCell>
        <mxCell id="USHChUwwJ4gJDzVkKCaV-18" style="edgeStyle=orthogonalEdgeStyle;rounded=0;orthogonalLoop=1;jettySize=auto;html=1;" edge="1" parent="1" source="USHChUwwJ4gJDzVkKCaV-1" target="USHChUwwJ4gJDzVkKCaV-3">
          <mxGeometry relative="1" as="geometry">
            <Array as="points">
              <mxPoint x="425" y="70" />
              <mxPoint x="140" y="70" />
            </Array>
          </mxGeometry>
        </mxCell>
        <mxCell id="USHChUwwJ4gJDzVkKCaV-1" value="&lt;span style=&quot;left: 350.677px ; top: 338.118px ; font-size: 20px ; font-family: sans-serif ; transform: scalex(0.976638)&quot;&gt;Sale of Goods on Approval or Return Basis&lt;/span&gt;" style="rounded=0;whiteSpace=wrap;html=1;" vertex="1" parent="1">
          <mxGeometry x="270" width="310" height="50" as="geometry" />
        </mxCell>
        <mxCell id="USHChUwwJ4gJDzVkKCaV-19" style="edgeStyle=orthogonalEdgeStyle;rounded=0;orthogonalLoop=1;jettySize=auto;html=1;entryX=0.5;entryY=0;entryDx=0;entryDy=0;" edge="1" parent="1" source="USHChUwwJ4gJDzVkKCaV-2" target="USHChUwwJ4gJDzVkKCaV-15">
          <mxGeometry relative="1" as="geometry" />
        </mxCell>
        <mxCell id="USHChUwwJ4gJDzVkKCaV-2" value="&lt;span style=&quot;left: 321.549px ; top: 294.513px ; font-size: 9.79688px ; font-family: sans-serif ; transform: scalex(1.03915)&quot;&gt;Frequently&lt;/span&gt;" style="rounded=0;whiteSpace=wrap;html=1;" vertex="1" parent="1">
          <mxGeometry x="240" y="90" width="120" height="40" as="geometry" />
        </mxCell>
        <mxCell id="USHChUwwJ4gJDzVkKCaV-20" style="edgeStyle=orthogonalEdgeStyle;rounded=0;orthogonalLoop=1;jettySize=auto;html=1;entryX=0.5;entryY=0;entryDx=0;entryDy=0;" edge="1" parent="1" source="USHChUwwJ4gJDzVkKCaV-3" target="USHChUwwJ4gJDzVkKCaV-7">
          <mxGeometry relative="1" as="geometry" />
        </mxCell>
        <mxCell id="USHChUwwJ4gJDzVkKCaV-3" value="&lt;span style=&quot;left: 240.441px ; top: 294.513px ; font-size: 9.79688px ; font-family: sans-serif ; transform: scalex(0.97733)&quot;&gt;Casually&lt;/span&gt;" style="rounded=0;whiteSpace=wrap;html=1;" vertex="1" parent="1">
          <mxGeometry x="80" y="90" width="120" height="40" as="geometry" />
        </mxCell>
        <mxCell id="USHChUwwJ4gJDzVkKCaV-25" style="edgeStyle=orthogonalEdgeStyle;rounded=0;orthogonalLoop=1;jettySize=auto;html=1;" edge="1" parent="1" source="USHChUwwJ4gJDzVkKCaV-4" target="USHChUwwJ4gJDzVkKCaV-12">
          <mxGeometry relative="1" as="geometry" />
        </mxCell>
        <mxCell id="USHChUwwJ4gJDzVkKCaV-26" style="edgeStyle=orthogonalEdgeStyle;rounded=0;orthogonalLoop=1;jettySize=auto;html=1;" edge="1" parent="1" source="USHChUwwJ4gJDzVkKCaV-4" target="USHChUwwJ4gJDzVkKCaV-13">
          <mxGeometry relative="1" as="geometry" />
        </mxCell>
        <mxCell id="USHChUwwJ4gJDzVkKCaV-4" value="&lt;span style=&quot;left: 419.253px ; top: 294.513px ; font-size: 9.79688px ; font-family: sans-serif ; transform: scalex(1.01881)&quot;&gt;Numerously&lt;/span&gt;" style="rounded=0;whiteSpace=wrap;html=1;" vertex="1" parent="1">
          <mxGeometry x="680" y="90" width="120" height="40" as="geometry" />
        </mxCell>
        <mxCell id="USHChUwwJ4gJDzVkKCaV-7" value="&lt;span style=&quot;left: 223.994px ; top: 344.65px ; font-size: 9.79688px ; font-family: sans-serif ; transform: scalex(1.00039)&quot;&gt;Transaction &lt;/span&gt;&lt;span style=&quot;left: 229.02px ; top: 356.406px ; font-size: 9.79688px ; font-family: sans-serif ; transform: scalex(1.00922)&quot;&gt;is treated &lt;/span&gt;&lt;span style=&quot;left: 224.229px ; top: 368.163px ; font-size: 9.79688px ; font-family: sans-serif ; transform: scalex(0.981029)&quot;&gt;as Ordinary &lt;/span&gt;&lt;span style=&quot;left: 240.306px ; top: 379.919px ; font-size: 9.79688px ; font-family: sans-serif ; transform: scalex(0.941603)&quot;&gt;Sale&lt;/span&gt;" style="rounded=0;whiteSpace=wrap;html=1;" vertex="1" parent="1">
          <mxGeometry x="80" y="160" width="120" height="40" as="geometry" />
        </mxCell>
        <mxCell id="USHChUwwJ4gJDzVkKCaV-8" value="&lt;span style=&quot;left: 369.928px ; top: 479.68px ; font-size: 9.79688px ; font-family: sans-serif ; transform: scalex(0.954382)&quot;&gt;Goods &lt;/span&gt;&lt;span style=&quot;left: 362.346px ; top: 491.437px ; font-size: 9.79688px ; font-family: sans-serif ; transform: scalex(1.04461)&quot;&gt;Approved&lt;/span&gt;" style="rounded=0;whiteSpace=wrap;html=1;" vertex="1" parent="1">
          <mxGeometry x="305" y="240" width="120" height="40" as="geometry" />
        </mxCell>
        <mxCell id="USHChUwwJ4gJDzVkKCaV-9" value="&lt;span style=&quot;left: 303.163px ; top: 480.454px ; font-size: 9.79688px ; font-family: sans-serif ; transform: scalex(0.954382)&quot;&gt;Goods &lt;/span&gt;&lt;span style=&quot;left: 296.883px ; top: 492.211px ; font-size: 9.79688px ; font-family: sans-serif ; transform: scalex(1.01658)&quot;&gt;Returned&lt;/span&gt;" style="rounded=0;whiteSpace=wrap;html=1;" vertex="1" parent="1">
          <mxGeometry x="175" y="240" width="120" height="40" as="geometry" />
        </mxCell>
        <mxCell id="USHChUwwJ4gJDzVkKCaV-10" value="&lt;span style=&quot;left: 436.821px ; top: 485.853px ; font-size: 9.79688px ; font-family: sans-serif ; transform: scalex(0.964134)&quot;&gt;Balance&lt;/span&gt;" style="rounded=0;whiteSpace=wrap;html=1;" vertex="1" parent="1">
          <mxGeometry x="435" y="240" width="120" height="40" as="geometry" />
        </mxCell>
        <mxCell id="USHChUwwJ4gJDzVkKCaV-11" value="&lt;span style=&quot;left: 225.072px ; top: 479.68px ; font-size: 9.79688px ; font-family: sans-serif ; transform: scalex(0.962263)&quot;&gt;Goods sent &lt;/span&gt;&lt;span style=&quot;left: 222.681px ; top: 491.437px ; font-size: 9.79688px ; font-family: sans-serif ; transform: scalex(1.0342)&quot;&gt;on Approval&lt;/span&gt;" style="rounded=0;whiteSpace=wrap;html=1;" vertex="1" parent="1">
          <mxGeometry x="45" y="240" width="120" height="40" as="geometry" />
        </mxCell>
        <mxCell id="USHChUwwJ4gJDzVkKCaV-28" style="edgeStyle=orthogonalEdgeStyle;rounded=0;orthogonalLoop=1;jettySize=auto;html=1;" edge="1" parent="1" source="USHChUwwJ4gJDzVkKCaV-12" target="USHChUwwJ4gJDzVkKCaV-14">
          <mxGeometry relative="1" as="geometry" />
        </mxCell>
        <mxCell id="USHChUwwJ4gJDzVkKCaV-12" value="&lt;span style=&quot;left: 379.706px ; top: 336.94px ; font-size: 9.79688px ; font-family: sans-serif ; transform: scalex(0.933286)&quot;&gt;Sales or &lt;/span&gt;&lt;span style=&quot;left: 372.348px ; top: 348.696px ; font-size: 9.79688px ; font-family: sans-serif ; transform: scalex(0.981774)&quot;&gt;Return Day &lt;/span&gt;&lt;span style=&quot;left: 385.398px ; top: 360.453px ; font-size: 9.79688px ; font-family: sans-serif ; transform: scalex(1.01288)&quot;&gt;Book&lt;/span&gt;" style="rounded=0;whiteSpace=wrap;html=1;" vertex="1" parent="1">
          <mxGeometry x="610" y="170" width="120" height="40" as="geometry" />
        </mxCell>
        <mxCell id="USHChUwwJ4gJDzVkKCaV-27" style="edgeStyle=orthogonalEdgeStyle;rounded=0;orthogonalLoop=1;jettySize=auto;html=1;" edge="1" parent="1" source="USHChUwwJ4gJDzVkKCaV-13" target="USHChUwwJ4gJDzVkKCaV-14">
          <mxGeometry relative="1" as="geometry" />
        </mxCell>
        <mxCell id="USHChUwwJ4gJDzVkKCaV-13" value="&lt;span style=&quot;left: 448.646px ; top: 336.94px ; font-size: 9.79688px ; font-family: sans-serif ; transform: scalex(0.933286)&quot;&gt;Sales or &lt;/span&gt;&lt;span style=&quot;left: 450.782px ; top: 348.696px ; font-size: 9.79688px ; font-family: sans-serif ; transform: scalex(0.994217)&quot;&gt;Return &lt;/span&gt;&lt;span style=&quot;left: 450.38px ; top: 360.453px ; font-size: 9.79688px ; font-family: sans-serif ; transform: scalex(1.0057)&quot;&gt;Ledger&lt;/span&gt;" style="rounded=0;whiteSpace=wrap;html=1;" vertex="1" parent="1">
          <mxGeometry x="750" y="170" width="120" height="40" as="geometry" />
        </mxCell>
        <mxCell id="USHChUwwJ4gJDzVkKCaV-14" value="&lt;span style=&quot;left: 407.117px ; top: 406.018px ; font-size: 9.79688px ; font-family: sans-serif ; transform: scalex(0.968042)&quot;&gt;Treated as &lt;/span&gt;&lt;span style=&quot;left: 398.437px ; top: 417.774px ; font-size: 9.79688px ; font-family: sans-serif ; transform: scalex(1.01455)&quot;&gt;Memorandum &lt;/span&gt;&lt;span style=&quot;left: 416.032px ; top: 429.53px ; font-size: 9.79688px ; font-family: sans-serif ; transform: scalex(0.987367)&quot;&gt;Books&lt;/span&gt;" style="rounded=0;whiteSpace=wrap;html=1;" vertex="1" parent="1">
          <mxGeometry x="680" y="250" width="120" height="40" as="geometry" />
        </mxCell>
        <mxCell id="USHChUwwJ4gJDzVkKCaV-21" style="edgeStyle=orthogonalEdgeStyle;rounded=0;orthogonalLoop=1;jettySize=auto;html=1;" edge="1" parent="1" source="USHChUwwJ4gJDzVkKCaV-15" target="USHChUwwJ4gJDzVkKCaV-11">
          <mxGeometry relative="1" as="geometry">
            <Array as="points">
              <mxPoint x="300" y="220" />
              <mxPoint x="105" y="220" />
            </Array>
          </mxGeometry>
        </mxCell>
        <mxCell id="USHChUwwJ4gJDzVkKCaV-22" style="edgeStyle=orthogonalEdgeStyle;rounded=0;orthogonalLoop=1;jettySize=auto;html=1;" edge="1" parent="1" source="USHChUwwJ4gJDzVkKCaV-15" target="USHChUwwJ4gJDzVkKCaV-9">
          <mxGeometry relative="1" as="geometry" />
        </mxCell>
        <mxCell id="USHChUwwJ4gJDzVkKCaV-23" style="edgeStyle=orthogonalEdgeStyle;rounded=0;orthogonalLoop=1;jettySize=auto;html=1;" edge="1" parent="1" source="USHChUwwJ4gJDzVkKCaV-15" target="USHChUwwJ4gJDzVkKCaV-8">
          <mxGeometry relative="1" as="geometry" />
        </mxCell>
        <mxCell id="USHChUwwJ4gJDzVkKCaV-24" style="edgeStyle=orthogonalEdgeStyle;rounded=0;orthogonalLoop=1;jettySize=auto;html=1;" edge="1" parent="1" source="USHChUwwJ4gJDzVkKCaV-15" target="USHChUwwJ4gJDzVkKCaV-10">
          <mxGeometry relative="1" as="geometry">
            <Array as="points">
              <mxPoint x="300" y="220" />
              <mxPoint x="495" y="220" />
            </Array>
          </mxGeometry>
        </mxCell>
        <mxCell id="USHChUwwJ4gJDzVkKCaV-15" value="&lt;span style=&quot;left: 300.243px ; top: 342.436px ; font-size: 9.79688px ; font-family: sans-serif ; transform: scalex(0.933286)&quot;&gt;Sales or &lt;/span&gt;&lt;span style=&quot;left: 302.379px ; top: 352.233px ; font-size: 9.79688px ; font-family: sans-serif ; transform: scalex(0.994217)&quot;&gt;Return &lt;/span&gt;&lt;span style=&quot;left: 296.442px ; top: 362.03px ; font-size: 9.79688px ; font-family: sans-serif ; transform: scalex(0.976471)&quot;&gt;Journal is &lt;/span&gt;&lt;span style=&quot;left: 297.079px ; top: 371.827px ; font-size: 9.79688px ; font-family: sans-serif ; transform: scalex(1.01418)&quot;&gt;prepared &lt;/span&gt;&lt;span style=&quot;left: 297.382px ; top: 381.624px ; font-size: 9.79688px ; font-family: sans-serif ; transform: scalex(1.05371)&quot;&gt;with four &lt;/span&gt;&lt;span style=&quot;left: 306.249px ; top: 391.42px ; font-size: 9.79688px ; font-family: sans-serif ; transform: scalex(1.00149)&quot;&gt;main &lt;/span&gt;&lt;span style=&quot;left: 298.872px ; top: 401.217px ; font-size: 9.79688px ; font-family: sans-serif ; transform: scalex(1.00557)&quot;&gt;column&lt;/span&gt;" style="rounded=0;whiteSpace=wrap;html=1;" vertex="1" parent="1">
          <mxGeometry x="240" y="160" width="120" height="40" as="geometry" />
        </mxCell>
        <mxCell id="USHChUwwJ4gJDzVkKCaV-29" value="" style="shape=table;html=1;whiteSpace=wrap;startSize=0;container=1;collapsible=0;childLayout=tableLayout;" vertex="1" parent="1">
          <mxGeometry x="130" y="320" width="530" height="520" as="geometry" />
        </mxCell>
        <mxCell id="USHChUwwJ4gJDzVkKCaV-30" value="" style="shape=partialRectangle;html=1;whiteSpace=wrap;collapsible=0;dropTarget=0;pointerEvents=0;fillColor=none;top=0;left=0;bottom=0;right=0;points=[[0,0.5],[1,0.5]];portConstraint=eastwest;" vertex="1" parent="USHChUwwJ4gJDzVkKCaV-29">
          <mxGeometry width="530" height="40" as="geometry" />
        </mxCell>
        <mxCell id="USHChUwwJ4gJDzVkKCaV-31" value="&lt;u&gt;&lt;font style=&quot;font-size: 10px&quot;&gt;&lt;span style=&quot;left: 60px ; top: 846.637px ; font-size: 18.3333px ; font-family: sans-serif ; transform: scalex(0.837582)&quot;&gt;1. &lt;/span&gt;&lt;span style=&quot;left: 93.0733px ; top: 846.637px ; font-size: 18.3333px ; font-family: sans-serif ; transform: scalex(0.919504)&quot;&gt;When goods are sent on sale or return basis:&lt;/span&gt;&lt;/font&gt;&lt;/u&gt;" style="shape=partialRectangle;html=1;whiteSpace=wrap;connectable=0;overflow=hidden;fillColor=none;top=0;left=0;bottom=0;right=0;" vertex="1" parent="USHChUwwJ4gJDzVkKCaV-30">
          <mxGeometry width="420" height="40" as="geometry" />
        </mxCell>
        <mxCell id="USHChUwwJ4gJDzVkKCaV-32" value="" style="shape=partialRectangle;html=1;whiteSpace=wrap;connectable=0;overflow=hidden;fillColor=none;top=0;left=0;bottom=0;right=0;" vertex="1" parent="USHChUwwJ4gJDzVkKCaV-30">
          <mxGeometry x="420" width="110" height="40" as="geometry" />
        </mxCell>
        <mxCell id="USHChUwwJ4gJDzVkKCaV-33" value="" style="shape=partialRectangle;html=1;whiteSpace=wrap;collapsible=0;dropTarget=0;pointerEvents=0;fillColor=none;top=0;left=0;bottom=0;right=0;points=[[0,0.5],[1,0.5]];portConstraint=eastwest;" vertex="1" parent="USHChUwwJ4gJDzVkKCaV-29">
          <mxGeometry y="40" width="530" height="50" as="geometry" />
        </mxCell>
        <mxCell id="USHChUwwJ4gJDzVkKCaV-34" value="&lt;div&gt;&lt;span style=&quot;left: 126.147px ; top: 879.436px ; font-size: 18.3333px ; font-family: sans-serif ; transform: scalex(0.875205)&quot;&gt;Trade receivables / Customers Account                              &lt;/span&gt;&lt;span style=&quot;left: 540.003px ; top: 879.436px ; font-size: 18.3333px ; font-family: sans-serif ; transform: scalex(0.863618)&quot;&gt;Dr.  &lt;/span&gt;&lt;span style=&quot;left: 159.22px ; top: 912.234px ; font-size: 18.3333px ; font-family: sans-serif ; transform: scalex(0.900552)&quot;&gt;&lt;br&gt;&lt;/span&gt;&lt;/div&gt;&lt;div align=&quot;left&quot;&gt;&lt;span style=&quot;left: 159.22px ; top: 912.234px ; font-size: 18.3333px ; font-family: sans-serif ; transform: scalex(0.900552)&quot;&gt;To Sales Account&lt;/span&gt;&lt;/div&gt;" style="shape=partialRectangle;html=1;whiteSpace=wrap;connectable=0;overflow=hidden;fillColor=none;top=0;left=0;bottom=0;right=0;" vertex="1" parent="USHChUwwJ4gJDzVkKCaV-33">
          <mxGeometry width="420" height="50" as="geometry" />
        </mxCell>
        <mxCell id="USHChUwwJ4gJDzVkKCaV-35" value="&lt;div&gt;XXX&lt;/div&gt;&lt;div&gt;&amp;nbsp;&amp;nbsp;&amp;nbsp;&amp;nbsp;&amp;nbsp; XXX&lt;br&gt;&lt;/div&gt;" style="shape=partialRectangle;html=1;whiteSpace=wrap;connectable=0;overflow=hidden;fillColor=none;top=0;left=0;bottom=0;right=0;" vertex="1" parent="USHChUwwJ4gJDzVkKCaV-33">
          <mxGeometry x="420" width="110" height="50" as="geometry" />
        </mxCell>
        <mxCell id="USHChUwwJ4gJDzVkKCaV-36" value="" style="shape=partialRectangle;html=1;whiteSpace=wrap;collapsible=0;dropTarget=0;pointerEvents=0;fillColor=none;top=0;left=0;bottom=0;right=0;points=[[0,0.5],[1,0.5]];portConstraint=eastwest;" vertex="1" parent="USHChUwwJ4gJDzVkKCaV-29">
          <mxGeometry y="90" width="530" height="50" as="geometry" />
        </mxCell>
        <mxCell id="USHChUwwJ4gJDzVkKCaV-37" value="&lt;u&gt;&lt;span style=&quot;left: 60px ; top: 945.032px ; font-size: 18.3333px ; font-family: sans-serif ; transform: scalex(0.837582)&quot;&gt;2. &lt;/span&gt;&lt;span style=&quot;left: 93.0733px ; top: 945.032px ; font-size: 18.3333px ; font-family: sans-serif ; transform: scalex(0.958912)&quot;&gt;When goods are rejected or returned within the specied time&lt;/span&gt;&lt;/u&gt;" style="shape=partialRectangle;html=1;whiteSpace=wrap;connectable=0;overflow=hidden;fillColor=none;top=0;left=0;bottom=0;right=0;" vertex="1" parent="USHChUwwJ4gJDzVkKCaV-36">
          <mxGeometry width="420" height="50" as="geometry" />
        </mxCell>
        <mxCell id="USHChUwwJ4gJDzVkKCaV-38" value="" style="shape=partialRectangle;html=1;whiteSpace=wrap;connectable=0;overflow=hidden;fillColor=none;top=0;left=0;bottom=0;right=0;" vertex="1" parent="USHChUwwJ4gJDzVkKCaV-36">
          <mxGeometry x="420" width="110" height="50" as="geometry" />
        </mxCell>
        <mxCell id="USHChUwwJ4gJDzVkKCaV-39" value="" style="shape=partialRectangle;html=1;whiteSpace=wrap;collapsible=0;dropTarget=0;pointerEvents=0;fillColor=none;top=0;left=0;bottom=0;right=0;points=[[0,0.5],[1,0.5]];portConstraint=eastwest;" vertex="1" parent="USHChUwwJ4gJDzVkKCaV-29">
          <mxGeometry y="140" width="530" height="60" as="geometry" />
        </mxCell>
        <mxCell id="USHChUwwJ4gJDzVkKCaV-40" value="&lt;div align=&quot;left&quot;&gt;&lt;span style=&quot;left: 126.147px ; top: 977.831px ; font-size: 18.3333px ; font-family: sans-serif ; transform: scalex(0.749321)&quot;&gt;Sales/Return Inwards Account                                                            &lt;/span&gt;&lt;span style=&quot;left: 540.003px ; top: 977.831px ; font-size: 18.3333px ; font-family: sans-serif ; transform: scalex(0.881947)&quot;&gt;Dr. &lt;/span&gt;&lt;span style=&quot;left: 600.008px ; top: 977.831px ; font-size: 18.3333px ; font-family: sans-serif ; transform: scalex(0.949845)&quot;&gt;&lt;/span&gt;&lt;span style=&quot;left: 93.0733px ; top: 1010.63px ; font-size: 18.3333px ; font-family: sans-serif ; transform: scalex(0.880655)&quot;&gt; &lt;br&gt;&lt;/span&gt;&lt;/div&gt;&lt;div align=&quot;left&quot;&gt;&lt;span style=&quot;left: 93.0733px ; top: 1010.63px ; font-size: 18.3333px ; font-family: sans-serif ; transform: scalex(0.880655)&quot;&gt;To Customers/Trade receivables Account&lt;/span&gt;&lt;/div&gt;" style="shape=partialRectangle;html=1;whiteSpace=wrap;connectable=0;overflow=hidden;fillColor=none;top=0;left=0;bottom=0;right=0;" vertex="1" parent="USHChUwwJ4gJDzVkKCaV-39">
          <mxGeometry width="420" height="60" as="geometry" />
        </mxCell>
        <mxCell id="USHChUwwJ4gJDzVkKCaV-41" value="&lt;div&gt;XXX&lt;/div&gt;&lt;div&gt;&amp;nbsp;&amp;nbsp;&amp;nbsp;&amp;nbsp; XXX&lt;br&gt;&lt;/div&gt;" style="shape=partialRectangle;html=1;whiteSpace=wrap;connectable=0;overflow=hidden;fillColor=none;top=0;left=0;bottom=0;right=0;" vertex="1" parent="USHChUwwJ4gJDzVkKCaV-39">
          <mxGeometry x="420" width="110" height="60" as="geometry" />
        </mxCell>
        <mxCell id="USHChUwwJ4gJDzVkKCaV-42" value="" style="shape=partialRectangle;html=1;whiteSpace=wrap;collapsible=0;dropTarget=0;pointerEvents=0;fillColor=none;top=0;left=0;bottom=0;right=0;points=[[0,0.5],[1,0.5]];portConstraint=eastwest;" vertex="1" parent="USHChUwwJ4gJDzVkKCaV-29">
          <mxGeometry y="200" width="530" height="40" as="geometry" />
        </mxCell>
        <mxCell id="USHChUwwJ4gJDzVkKCaV-43" value="&lt;u&gt;&lt;span style=&quot;left: 60px ; top: 1043.43px ; font-size: 18.3333px ; font-family: sans-serif ; transform: scalex(0.837582)&quot;&gt;3. &lt;/span&gt;&lt;span style=&quot;left: 93.0733px ; top: 1043.43px ; font-size: 18.3333px ; font-family: sans-serif ; transform: scalex(0.930043)&quot;&gt;When goods are accepted at invoice price:&lt;/span&gt;&lt;/u&gt;" style="shape=partialRectangle;html=1;whiteSpace=wrap;connectable=0;overflow=hidden;fillColor=none;top=0;left=0;bottom=0;right=0;" vertex="1" parent="USHChUwwJ4gJDzVkKCaV-42">
          <mxGeometry width="420" height="40" as="geometry" />
        </mxCell>
        <mxCell id="USHChUwwJ4gJDzVkKCaV-44" value="" style="shape=partialRectangle;html=1;whiteSpace=wrap;connectable=0;overflow=hidden;fillColor=none;top=0;left=0;bottom=0;right=0;" vertex="1" parent="USHChUwwJ4gJDzVkKCaV-42">
          <mxGeometry x="420" width="110" height="40" as="geometry" />
        </mxCell>
        <mxCell id="USHChUwwJ4gJDzVkKCaV-45" value="" style="shape=partialRectangle;html=1;whiteSpace=wrap;collapsible=0;dropTarget=0;pointerEvents=0;fillColor=none;top=0;left=0;bottom=0;right=0;points=[[0,0.5],[1,0.5]];portConstraint=eastwest;" vertex="1" parent="USHChUwwJ4gJDzVkKCaV-29">
          <mxGeometry y="240" width="530" height="40" as="geometry" />
        </mxCell>
        <mxCell id="USHChUwwJ4gJDzVkKCaV-46" value="&lt;span style=&quot;left: 126.147px ; top: 1076.23px ; font-size: 18.3333px ; font-family: sans-serif ; transform: scalex(0.962299)&quot;&gt;[No entry]&lt;/span&gt;" style="shape=partialRectangle;html=1;whiteSpace=wrap;connectable=0;overflow=hidden;fillColor=none;top=0;left=0;bottom=0;right=0;" vertex="1" parent="USHChUwwJ4gJDzVkKCaV-45">
          <mxGeometry width="420" height="40" as="geometry" />
        </mxCell>
        <mxCell id="USHChUwwJ4gJDzVkKCaV-47" value="nil" style="shape=partialRectangle;html=1;whiteSpace=wrap;connectable=0;overflow=hidden;fillColor=none;top=0;left=0;bottom=0;right=0;" vertex="1" parent="USHChUwwJ4gJDzVkKCaV-45">
          <mxGeometry x="420" width="110" height="40" as="geometry" />
        </mxCell>
        <mxCell id="USHChUwwJ4gJDzVkKCaV-48" value="" style="shape=partialRectangle;html=1;whiteSpace=wrap;collapsible=0;dropTarget=0;pointerEvents=0;fillColor=none;top=0;left=0;bottom=0;right=0;points=[[0,0.5],[1,0.5]];portConstraint=eastwest;" vertex="1" parent="USHChUwwJ4gJDzVkKCaV-29">
          <mxGeometry y="280" width="530" height="60" as="geometry" />
        </mxCell>
        <mxCell id="USHChUwwJ4gJDzVkKCaV-49" value="&lt;u&gt;&lt;span style=&quot;left: 90px ; top: 100.47px ; font-size: 18.3333px ; font-family: sans-serif ; transform: scalex(0.837582)&quot;&gt;4. &lt;/span&gt;&lt;span style=&quot;left: 123.073px ; top: 100.47px ; font-size: 18.3333px ; font-family: sans-serif ; transform: scalex(0.933809)&quot;&gt;When goods are accepted at a higher price than invoice price:&lt;/span&gt;&lt;/u&gt;" style="shape=partialRectangle;html=1;whiteSpace=wrap;connectable=0;overflow=hidden;fillColor=none;top=0;left=0;bottom=0;right=0;" vertex="1" parent="USHChUwwJ4gJDzVkKCaV-48">
          <mxGeometry width="420" height="60" as="geometry" />
        </mxCell>
        <mxCell id="USHChUwwJ4gJDzVkKCaV-50" value="" style="shape=partialRectangle;html=1;whiteSpace=wrap;connectable=0;overflow=hidden;fillColor=none;top=0;left=0;bottom=0;right=0;" vertex="1" parent="USHChUwwJ4gJDzVkKCaV-48">
          <mxGeometry x="420" width="110" height="60" as="geometry" />
        </mxCell>
        <mxCell id="USHChUwwJ4gJDzVkKCaV-51" value="" style="shape=partialRectangle;html=1;whiteSpace=wrap;collapsible=0;dropTarget=0;pointerEvents=0;fillColor=none;top=0;left=0;bottom=0;right=0;points=[[0,0.5],[1,0.5]];portConstraint=eastwest;" vertex="1" parent="USHChUwwJ4gJDzVkKCaV-29">
          <mxGeometry y="340" width="530" height="50" as="geometry" />
        </mxCell>
        <mxCell id="USHChUwwJ4gJDzVkKCaV-52" value="&lt;div align=&quot;left&quot;&gt;&lt;span style=&quot;left: 156.147px ; top: 133.268px ; font-size: 18.3333px ; font-family: sans-serif ; transform: scalex(0.875205)&quot;&gt;Trade receivables / Customers Account                              &lt;/span&gt;&lt;span style=&quot;left: 570.003px ; top: 133.268px ; font-size: 18.3333px ; font-family: sans-serif ; transform: scalex(0.908351)&quot;&gt;Dr.&lt;/span&gt;&lt;span style=&quot;left: 123.073px ; top: 166.067px ; font-size: 18.3333px ; font-family: sans-serif ; transform: scalex(0.771321)&quot;&gt; &lt;br&gt;&lt;/span&gt;&lt;/div&gt;&lt;div align=&quot;left&quot;&gt;&lt;span style=&quot;left: 123.073px ; top: 166.067px ; font-size: 18.3333px ; font-family: sans-serif ; transform: scalex(0.771321)&quot;&gt;To Sales Account                                                                                          [Difference in price]&lt;/span&gt;&lt;/div&gt;" style="shape=partialRectangle;html=1;whiteSpace=wrap;connectable=0;overflow=hidden;fillColor=none;top=0;left=0;bottom=0;right=0;" vertex="1" parent="USHChUwwJ4gJDzVkKCaV-51">
          <mxGeometry width="420" height="50" as="geometry" />
        </mxCell>
        <mxCell id="USHChUwwJ4gJDzVkKCaV-53" value="&lt;div&gt;xxx&lt;/div&gt;&lt;div&gt;&amp;nbsp;&amp;nbsp;&amp;nbsp; xxx&lt;br&gt;&lt;/div&gt;" style="shape=partialRectangle;html=1;whiteSpace=wrap;connectable=0;overflow=hidden;fillColor=none;top=0;left=0;bottom=0;right=0;" vertex="1" parent="USHChUwwJ4gJDzVkKCaV-51">
          <mxGeometry x="420" width="110" height="50" as="geometry" />
        </mxCell>
        <mxCell id="USHChUwwJ4gJDzVkKCaV-63" style="shape=partialRectangle;html=1;whiteSpace=wrap;collapsible=0;dropTarget=0;pointerEvents=0;fillColor=none;top=0;left=0;bottom=0;right=0;points=[[0,0.5],[1,0.5]];portConstraint=eastwest;" vertex="1" parent="USHChUwwJ4gJDzVkKCaV-29">
          <mxGeometry y="390" width="530" height="50" as="geometry" />
        </mxCell>
        <mxCell id="USHChUwwJ4gJDzVkKCaV-64" value="&lt;span style=&quot;left: 90px ; top: 198.865px ; font-size: 18.3333px ; font-family: sans-serif ; transform: scalex(0.837582)&quot;&gt;5. &lt;/span&gt;&lt;span style=&quot;left: 123.073px ; top: 198.865px ; font-size: 18.3333px ; font-family: sans-serif ; transform: scalex(0.934803)&quot;&gt;When goods are accepted at a lower price than the invoice price&lt;/span&gt;" style="shape=partialRectangle;html=1;whiteSpace=wrap;connectable=0;overflow=hidden;fillColor=none;top=0;left=0;bottom=0;right=0;" vertex="1" parent="USHChUwwJ4gJDzVkKCaV-63">
          <mxGeometry width="420" height="50" as="geometry" />
        </mxCell>
        <mxCell id="USHChUwwJ4gJDzVkKCaV-65" style="shape=partialRectangle;html=1;whiteSpace=wrap;connectable=0;overflow=hidden;fillColor=none;top=0;left=0;bottom=0;right=0;" vertex="1" parent="USHChUwwJ4gJDzVkKCaV-63">
          <mxGeometry x="420" width="110" height="50" as="geometry" />
        </mxCell>
        <mxCell id="USHChUwwJ4gJDzVkKCaV-60" style="shape=partialRectangle;html=1;whiteSpace=wrap;collapsible=0;dropTarget=0;pointerEvents=0;fillColor=none;top=0;left=0;bottom=0;right=0;points=[[0,0.5],[1,0.5]];portConstraint=eastwest;" vertex="1" parent="USHChUwwJ4gJDzVkKCaV-29">
          <mxGeometry y="440" width="530" height="80" as="geometry" />
        </mxCell>
        <mxCell id="USHChUwwJ4gJDzVkKCaV-61" value="&lt;div align=&quot;left&quot;&gt;&lt;span style=&quot;left: 156.147px ; top: 231.663px ; font-size: 18.3333px ; font-family: sans-serif ; transform: scalex(0.724024)&quot;&gt;Sales Account                                                                                          Dr.&lt;/span&gt;&lt;span style=&quot;left: 123.073px ; top: 264.462px ; font-size: 18.3333px ; font-family: sans-serif ; transform: scalex(0.879449)&quot;&gt; &lt;br&gt;&lt;/span&gt;&lt;/div&gt;&lt;div align=&quot;left&quot;&gt;&lt;span style=&quot;left: 123.073px ; top: 264.462px ; font-size: 18.3333px ; font-family: sans-serif ; transform: scalex(0.879449)&quot;&gt;To Trade receivables / Customers Account  &lt;/span&gt;&lt;span style=&quot;left: 630.008px ; top: 264.462px ; font-size: 18.3333px ; font-family: sans-serif ; transform: scalex(0.944896)&quot;&gt;[Difference in price]&lt;/span&gt;&lt;/div&gt;" style="shape=partialRectangle;html=1;whiteSpace=wrap;connectable=0;overflow=hidden;fillColor=none;top=0;left=0;bottom=0;right=0;" vertex="1" parent="USHChUwwJ4gJDzVkKCaV-60">
          <mxGeometry width="420" height="80" as="geometry" />
        </mxCell>
        <mxCell id="USHChUwwJ4gJDzVkKCaV-62" value="&lt;div&gt;XXX&lt;/div&gt;&lt;div&gt;&amp;nbsp;&amp;nbsp;&amp;nbsp; XXX&lt;br&gt;&lt;/div&gt;" style="shape=partialRectangle;html=1;whiteSpace=wrap;connectable=0;overflow=hidden;fillColor=none;top=0;left=0;bottom=0;right=0;" vertex="1" parent="USHChUwwJ4gJDzVkKCaV-60">
          <mxGeometry x="420" width="110" height="80" as="geometry" />
        </mxCell>
      </root>
    </mxGraphModel>
  </diagram>
</mxfile>
